<svg
   xmlns="http://www.w3.org/2000/svg"
   width="20"
   height="20"
   viewBox="0 0 20 20"
 >
  <g
     style="font-style:normal;font-weight:normal;font-size:8px;line-height:1.25;font-family:sans-serif;letter-spacing:0px;word-spacing:0px;fill:#000000;fill-opacity:1;stroke:none"
     id="text4605">
    <path
       d="m 1.958188,3.6848115 h 4.0429686 v 1.4648437 h -1.829427 v 8.9583328 h 1.829427 v 1.464844 H 1.958188 Z"
       style="font-style:normal;font-variant:normal;font-weight:bold;font-stretch:normal;font-size:13.33333302px;font-family:'DejaVu Sans';-inkscape-font-specification:'DejaVu Sans Bold';letter-spacing:-2.57999992px"
       id="path4607"
        />
    <path
       d="M 10.257094,4.2447073 9.6320942,6.7512177 h 1.7187498 l 0.631511,-2.5065104 h 1.438802 l -0.631511,2.5065104 h 1.803386 v 1.3867187 h -2.148438 l -0.449219,1.7838541 h 1.848959 V 11.32153 h -2.1875 l -0.625,2.49349 H 9.5930317 L 10.218032,11.32153 H 8.4992817 L 7.8742818,13.81502 H 6.4224589 l 0.625,-2.49349 H 5.2310527 V 9.9217905 H 7.3664693 L 7.8221984,8.1379364 H 5.9797506 V 6.7512177 h 2.2005207 l 0.625,-2.5065104 z m 0.735677,3.8932291 H 9.2740213 L 8.8182922,9.9217905 h 1.7187498 z"
       style="font-style:normal;font-variant:normal;font-weight:bold;font-stretch:normal;font-size:13.33333302px;font-family:'DejaVu Sans';-inkscape-font-specification:'DejaVu Sans Bold';letter-spacing:-2.57999992px"
       id="path4609"
      />
    <path
       d="m 17.865896,15.572832 h -4.042968 v -1.464844 h 1.829427 V 5.1496552 H 13.822928 V 3.6848115 h 4.042968 z"
       style="font-style:normal;font-variant:normal;font-weight:bold;font-stretch:normal;font-size:13.33333302px;font-family:'DejaVu Sans';-inkscape-font-specification:'DejaVu Sans Bold';letter-spacing:-2.57999992px"
       id="path4611"
       />
  </g>
</svg>
